<svg xmlns="http://www.w3.org/2000/svg" xmlns:xlink="http://www.w3.org/1999/xlink" width="1920" zoomAndPan="magnify" viewBox="0 0 1440 809.999993" height="1080" preserveAspectRatio="xMidYMid meet" version="1.0"><defs><filter x="0%" y="0%" width="100%" height="100%" id="f6d169955a"><feColorMatrix values="0 0 0 0 1 0 0 0 0 1 0 0 0 0 1 0 0 0 1 0" color-interpolation-filters="sRGB"/></filter><g/><mask id="9cf488d23f"><g filter="url(#f6d169955a)"><rect x="-144" width="1728" fill="#000000" y="-80.999999" height="971.999992" fill-opacity="0.9"/></g></mask><clipPath id="b6d64f5e77"><rect x="0" width="1381" y="0" height="127"/></clipPath><mask id="3f294eaa25"><g filter="url(#f6d169955a)"><rect x="-144" width="1728" fill="#000000" y="-80.999999" height="971.999992" fill-opacity="0.8"/></g></mask><clipPath id="8aeff003c6"><rect x="0" width="504" y="0" height="67"/></clipPath><mask id="e8bcf38581"><g filter="url(#f6d169955a)"><rect x="-144" width="1728" fill="#000000" y="-80.999999" height="971.999992" fill-opacity="0.44"/></g></mask><clipPath id="808ddacffd"><rect x="0" width="1381" y="0" height="127"/></clipPath><mask id="1365d6b184"><g filter="url(#f6d169955a)"><rect x="-144" width="1728" fill="#000000" y="-80.999999" height="971.999992" fill-opacity="0.44"/></g></mask><clipPath id="ca56125328"><rect x="0" width="1385" y="0" height="210"/></clipPath><mask id="7424ab680d"><g filter="url(#f6d169955a)"><rect x="-144" width="1728" fill="#000000" y="-80.999999" height="971.999992" fill-opacity="0.44"/></g></mask><clipPath id="7449043c4f"><path d="M 0.121094 17 L 48 17 L 48 50 L 0.121094 50 Z M 0.121094 17 " clip-rule="nonzero"/></clipPath><clipPath id="ca0661df5e"><rect x="0" width="503" y="0" height="67"/></clipPath></defs><g mask="url(#9cf488d23f)"><g transform="matrix(1, 0, 0, 1, 32, 365)"><g clip-path="url(#b6d64f5e77)"><g fill="#004aad" fill-opacity="1"><g transform="translate(0.891716, 92.299439)"><g><path d="M 1.476562 0 L 9.632812 0 L 15.1875 -13.800781 L 44.78125 -13.800781 L 50.511719 0 L 58.582031 0 L 33.585938 -60.75 L 26.46875 -60.75 Z M 18.136719 -20.914062 L 30.027344 -50.078125 L 41.917969 -20.914062 Z M 18.136719 -20.914062 "/></g></g></g><g fill="#004aad" fill-opacity="1"><g transform="translate(60.937538, 92.299439)"><g><path d="M 8.851562 0 L 45.996094 0 L 45.996094 -7.289062 L 16.488281 -7.289062 L 16.488281 -60.75 L 8.851562 -60.75 Z M 8.851562 0 "/></g></g></g><g fill="#004aad" fill-opacity="1"><g transform="translate(109.616308, 92.299439)"><g><path d="M 8.851562 0 L 45.996094 0 L 45.996094 -7.289062 L 16.488281 -7.289062 L 16.488281 -60.75 L 8.851562 -60.75 Z M 8.851562 0 "/></g></g></g><g fill="#004aad" fill-opacity="1"><g transform="translate(158.295079, 92.299439)"><g/></g></g><g fill="#004aad" fill-opacity="1"><g transform="translate(179.81439, 92.299439)"><g><path d="M 36.449219 1.128906 C 54.9375 1.128906 67.953125 -11.890625 67.953125 -30.375 C 67.953125 -48.859375 54.9375 -61.878906 36.449219 -61.878906 C 17.964844 -61.878906 5.035156 -48.859375 5.035156 -30.375 C 5.035156 -11.890625 17.964844 1.128906 36.449219 1.128906 Z M 12.84375 -30.375 C 12.84375 -44.523438 22.476562 -54.242188 36.449219 -54.242188 C 50.421875 -54.242188 60.058594 -44.523438 60.058594 -30.375 C 60.058594 -16.230469 50.421875 -6.507812 36.449219 -6.507812 C 22.476562 -6.507812 12.84375 -16.230469 12.84375 -30.375 Z M 12.84375 -30.375 "/></g></g></g><g fill="#004aad" fill-opacity="1"><g transform="translate(252.702383, 92.299439)"><g><path d="M 23.519531 0 L 31.15625 0 L 31.15625 -53.460938 L 51.636719 -53.460938 L 51.636719 -60.75 L 2.949219 -60.75 L 2.949219 -53.460938 L 23.519531 -53.460938 Z M 23.519531 0 "/></g></g></g><g fill="#004aad" fill-opacity="1"><g transform="translate(307.368385, 92.299439)"><g><path d="M 48.6875 0 L 56.324219 0 L 56.324219 -60.75 L 48.6875 -60.75 L 48.6875 -34.628906 L 16.488281 -34.628906 L 16.488281 -60.75 L 8.851562 -60.75 L 8.851562 0 L 16.488281 0 L 16.488281 -27.339844 L 48.6875 -27.339844 Z M 48.6875 0 "/></g></g></g><g fill="#004aad" fill-opacity="1"><g transform="translate(372.533734, 92.299439)"><g><path d="M 8.851562 0 L 46.691406 0 L 46.691406 -7.117188 L 16.488281 -7.117188 L 16.488281 -27.425781 L 43.566406 -27.425781 L 43.566406 -34.453125 L 16.488281 -34.453125 L 16.488281 -53.632812 L 45.738281 -53.632812 L 45.738281 -60.75 L 8.851562 -60.75 Z M 8.851562 0 "/></g></g></g><g fill="#004aad" fill-opacity="1"><g transform="translate(424.856897, 92.299439)"><g><path d="M 8.851562 0 L 16.488281 0 L 16.488281 -21.785156 L 29.855469 -21.785156 L 44.695312 0 L 53.894531 0 L 38.621094 -22.566406 C 47.472656 -24.734375 52.941406 -31.417969 52.941406 -41.222656 C 52.941406 -53.289062 44.609375 -60.75 32.023438 -60.75 L 8.851562 -60.75 Z M 16.488281 -29.074219 L 16.488281 -53.460938 L 31.15625 -53.460938 C 40.007812 -53.460938 45.128906 -48.949219 45.128906 -41.222656 C 45.128906 -33.5 40.007812 -29.074219 31.15625 -29.074219 Z M 16.488281 -29.074219 "/></g></g></g><g fill="#004aad" fill-opacity="1"><g transform="translate(483.948255, 92.299439)"><g><path d="M 29.074219 1.128906 C 42.351562 1.128906 50.945312 -5.378906 50.945312 -15.96875 C 50.945312 -24.90625 44.957031 -30.289062 29.421875 -34.105469 C 17.617188 -36.972656 13.710938 -40.09375 13.710938 -45.128906 C 13.710938 -50.945312 18.917969 -54.589844 27.597656 -54.589844 C 36.539062 -54.589844 42.089844 -50.078125 42.265625 -42.785156 L 49.816406 -42.785156 C 49.730469 -54.589844 41.222656 -61.878906 27.597656 -61.878906 C 14.320312 -61.878906 5.902344 -55.371094 5.902344 -45.128906 C 5.902344 -35.757812 12.585938 -30.550781 27.511719 -26.992188 C 38.445312 -24.386719 43.046875 -21.351562 43.046875 -15.707031 C 43.046875 -9.71875 37.664062 -6.160156 29.074219 -6.160156 C 19.613281 -6.160156 13.019531 -10.847656 12.84375 -18.660156 L 5.207031 -18.660156 C 5.292969 -6.769531 14.582031 1.128906 29.074219 1.128906 Z M 29.074219 1.128906 "/></g></g></g><g fill="#004aad" fill-opacity="1"><g transform="translate(540.089376, 92.299439)"><g/></g></g><g fill="#004aad" fill-opacity="1"><g transform="translate(561.608721, 92.299439)"><g><path d="M 8.851562 0 L 16.488281 0 L 16.488281 -46.519531 L 36.625 -16.140625 L 42.871094 -16.140625 L 63.007812 -46.429688 L 63.007812 0 L 70.644531 0 L 70.644531 -60.75 L 63.527344 -60.75 L 39.835938 -24.734375 L 15.96875 -60.75 L 8.851562 -60.75 Z M 8.851562 0 "/></g></g></g><g fill="#004aad" fill-opacity="1"><g transform="translate(641.091359, 92.299439)"><g><path d="M 31.589844 1.042969 C 46.257812 1.042969 55.109375 -8.59375 55.109375 -24.734375 L 55.109375 -60.75 L 47.472656 -60.75 L 47.472656 -25.253906 C 47.472656 -12.84375 42.003906 -6.421875 31.589844 -6.421875 C 21.261719 -6.421875 15.707031 -12.84375 15.707031 -25.253906 L 15.707031 -60.75 L 8.15625 -60.75 L 8.15625 -24.734375 C 8.15625 -8.59375 16.921875 1.042969 31.589844 1.042969 Z M 31.589844 1.042969 "/></g></g></g><g fill="#004aad" fill-opacity="1"><g transform="translate(704.347711, 92.299439)"><g><path d="M 29.074219 1.128906 C 42.351562 1.128906 50.945312 -5.378906 50.945312 -15.96875 C 50.945312 -24.90625 44.957031 -30.289062 29.421875 -34.105469 C 17.617188 -36.972656 13.710938 -40.09375 13.710938 -45.128906 C 13.710938 -50.945312 18.917969 -54.589844 27.597656 -54.589844 C 36.539062 -54.589844 42.089844 -50.078125 42.265625 -42.785156 L 49.816406 -42.785156 C 49.730469 -54.589844 41.222656 -61.878906 27.597656 -61.878906 C 14.320312 -61.878906 5.902344 -55.371094 5.902344 -45.128906 C 5.902344 -35.757812 12.585938 -30.550781 27.511719 -26.992188 C 38.445312 -24.386719 43.046875 -21.351562 43.046875 -15.707031 C 43.046875 -9.71875 37.664062 -6.160156 29.074219 -6.160156 C 19.613281 -6.160156 13.019531 -10.847656 12.84375 -18.660156 L 5.207031 -18.660156 C 5.292969 -6.769531 14.582031 1.128906 29.074219 1.128906 Z M 29.074219 1.128906 "/></g></g></g><g fill="#004aad" fill-opacity="1"><g transform="translate(760.488832, 92.299439)"><g><path d="M 23.519531 0 L 31.15625 0 L 31.15625 -53.460938 L 51.636719 -53.460938 L 51.636719 -60.75 L 2.949219 -60.75 L 2.949219 -53.460938 L 23.519531 -53.460938 Z M 23.519531 0 "/></g></g></g><g fill="#004aad" fill-opacity="1"><g transform="translate(815.154819, 92.299439)"><g/></g></g><g fill="#004aad" fill-opacity="1"><g transform="translate(836.674164, 92.299439)"><g><path d="M 8.851562 0 L 33.5 0 C 45.738281 0 53.375 -6.507812 53.375 -17.011719 C 53.375 -23.867188 49.988281 -28.988281 43.742188 -31.503906 C 48.6875 -34.019531 51.636719 -38.707031 51.636719 -44.609375 C 51.636719 -54.414062 44 -60.75 32.371094 -60.75 L 8.851562 -60.75 Z M 16.488281 -7.117188 L 16.488281 -27.511719 L 33.238281 -27.511719 C 41.136719 -27.511719 45.5625 -23.78125 45.5625 -17.359375 C 45.5625 -10.847656 41.136719 -7.117188 33.328125 -7.117188 Z M 16.488281 -34.453125 L 16.488281 -53.632812 L 32.199219 -53.632812 C 39.574219 -53.632812 43.828125 -50.164062 43.828125 -44 C 43.828125 -37.925781 39.660156 -34.453125 32.199219 -34.453125 Z M 16.488281 -34.453125 "/></g></g></g><g fill="#004aad" fill-opacity="1"><g transform="translate(894.897766, 92.299439)"><g><path d="M 8.851562 0 L 16.488281 0 L 16.488281 -21.785156 L 29.855469 -21.785156 L 44.695312 0 L 53.894531 0 L 38.621094 -22.566406 C 47.472656 -24.734375 52.941406 -31.417969 52.941406 -41.222656 C 52.941406 -53.289062 44.609375 -60.75 32.023438 -60.75 L 8.851562 -60.75 Z M 16.488281 -29.074219 L 16.488281 -53.460938 L 31.15625 -53.460938 C 40.007812 -53.460938 45.128906 -48.949219 45.128906 -41.222656 C 45.128906 -33.5 40.007812 -29.074219 31.15625 -29.074219 Z M 16.488281 -29.074219 "/></g></g></g><g fill="#004aad" fill-opacity="1"><g transform="translate(953.98909, 92.299439)"><g><path d="M 8.851562 0 L 16.488281 0 L 16.488281 -60.75 L 8.851562 -60.75 Z M 8.851562 0 "/></g></g></g><g fill="#004aad" fill-opacity="1"><g transform="translate(979.326362, 92.299439)"><g><path d="M 8.851562 0 L 16.402344 0 L 16.402344 -47.558594 L 49.988281 0 L 57.105469 0 L 57.105469 -60.75 L 49.640625 -60.75 L 49.640625 -13.191406 L 16.054688 -60.75 L 8.851562 -60.75 Z M 8.851562 0 "/></g></g></g><g fill="#004aad" fill-opacity="1"><g transform="translate(1045.272607, 92.299439)"><g><path d="M 35.929688 1.128906 C 54.589844 1.128906 67.171875 -13.019531 66.824219 -32.980469 L 33.847656 -32.980469 L 33.847656 -25.6875 L 58.582031 -25.6875 C 57.019531 -14.234375 48.339844 -6.507812 36.101562 -6.507812 C 22.476562 -6.507812 12.84375 -16.316406 12.84375 -30.375 C 12.84375 -44.433594 22.390625 -54.242188 36.015625 -54.242188 C 45.390625 -54.242188 52.851562 -49.640625 56.671875 -41.832031 L 65.003906 -41.832031 C 61.097656 -53.808594 49.640625 -61.878906 35.757812 -61.878906 C 17.964844 -61.878906 5.035156 -48.601562 5.035156 -30.375 C 5.035156 -12.0625 18.050781 1.128906 35.929688 1.128906 Z M 35.929688 1.128906 "/></g></g></g><g fill="#004aad" fill-opacity="1"><g transform="translate(1116.859016, 92.299439)"><g/></g></g><g fill="#004aad" fill-opacity="1"><g transform="translate(1138.378361, 92.299439)"><g><path d="M 8.851562 0 L 29.855469 0 C 48.515625 0 61.011719 -12.410156 61.011719 -30.375 C 61.011719 -48.339844 48.515625 -60.75 29.855469 -60.75 L 8.851562 -60.75 Z M 16.488281 -7.289062 L 16.488281 -53.460938 L 29.507812 -53.460938 C 43.652344 -53.460938 53.199219 -44.175781 53.199219 -30.375 C 53.199219 -16.578125 43.742188 -7.289062 29.855469 -7.289062 Z M 16.488281 -7.289062 "/></g></g></g><g fill="#004aad" fill-opacity="1"><g transform="translate(1204.411466, 92.299439)"><g><path d="M 1.476562 0 L 9.632812 0 L 15.1875 -13.800781 L 44.78125 -13.800781 L 50.511719 0 L 58.582031 0 L 33.585938 -60.75 L 26.46875 -60.75 Z M 18.136719 -20.914062 L 30.027344 -50.078125 L 41.917969 -20.914062 Z M 18.136719 -20.914062 "/></g></g></g><g fill="#004aad" fill-opacity="1"><g transform="translate(1264.457306, 92.299439)"><g><path d="M 23.519531 0 L 31.15625 0 L 31.15625 -53.460938 L 51.636719 -53.460938 L 51.636719 -60.75 L 2.949219 -60.75 L 2.949219 -53.460938 L 23.519531 -53.460938 Z M 23.519531 0 "/></g></g></g><g fill="#004aad" fill-opacity="1"><g transform="translate(1319.123359, 92.299439)"><g><path d="M 1.476562 0 L 9.632812 0 L 15.1875 -13.800781 L 44.78125 -13.800781 L 50.511719 0 L 58.582031 0 L 33.585938 -60.75 L 26.46875 -60.75 Z M 18.136719 -20.914062 L 30.027344 -50.078125 L 41.917969 -20.914062 Z M 18.136719 -20.914062 "/></g></g></g></g></g></g><g fill="#004aad" fill-opacity="1"><g transform="translate(24.950623, 347.813352)"><g><path d="M 12.070312 0 L 34.921875 0 L 34.921875 -100.59375 L 12.070312 -100.59375 Z M 12.070312 0 "/></g></g></g><g fill="#004aad" fill-opacity="1"><g transform="translate(71.942819, 347.813352)"><g><path d="M 12.070312 0 L 34.777344 0 L 34.777344 -61.652344 L 79.183594 0 L 98.582031 0 L 98.582031 -100.59375 L 75.878906 -100.59375 L 75.878906 -39.375 L 31.472656 -100.59375 L 12.070312 -100.59375 Z M 12.070312 0 "/></g></g></g><g fill="#004aad" fill-opacity="1"><g transform="translate(182.597236, 347.813352)"><g/></g></g><g fill="#004aad" fill-opacity="1"><g transform="translate(216.368383, 347.813352)"><g><path d="M 58.921875 2.011719 C 92.117188 2.011719 113.527344 -22.5625 111.230469 -57.050781 L 54.464844 -57.050781 L 54.464844 -39.375 L 87.085938 -39.375 C 84.210938 -27.160156 73.867188 -18.96875 59.207031 -18.96875 C 40.8125 -18.96875 29.027344 -32.191406 29.027344 -50.296875 C 29.027344 -68.691406 41.242188 -81.625 58.921875 -81.625 C 70.128906 -81.625 79.46875 -76.453125 84.355469 -67.6875 L 108.929688 -67.6875 C 102.894531 -88.8125 82.917969 -102.605469 58.488281 -102.605469 C 27.878906 -102.605469 6.179688 -80.90625 6.179688 -50.296875 C 6.179688 -19.542969 28.023438 2.011719 58.921875 2.011719 Z M 58.921875 2.011719 "/></g></g></g><g fill="#004aad" fill-opacity="1"><g transform="translate(333.63333, 347.813352)"><g><path d="M 59.78125 2.011719 C 91.253906 2.011719 113.527344 -19.542969 113.527344 -50.296875 C 113.527344 -81.050781 91.253906 -102.605469 59.78125 -102.605469 C 28.308594 -102.605469 6.179688 -81.050781 6.179688 -50.296875 C 6.179688 -19.542969 28.308594 2.011719 59.78125 2.011719 Z M 29.460938 -50.296875 C 29.460938 -68.40625 41.960938 -80.90625 59.78125 -80.90625 C 77.746094 -80.90625 90.105469 -68.40625 90.105469 -50.296875 C 90.105469 -32.191406 77.746094 -19.6875 59.78125 -19.6875 C 41.960938 -19.6875 29.460938 -32.191406 29.460938 -50.296875 Z M 29.460938 -50.296875 "/></g></g></g><g fill="#004aad" fill-opacity="1"><g transform="translate(453.341271, 347.813352)"><g><path d="M 12.070312 0 L 51.878906 0 C 83.636719 0 104.90625 -20.261719 104.90625 -50.296875 C 104.90625 -80.1875 83.636719 -100.59375 51.878906 -100.59375 L 12.070312 -100.59375 Z M 34.921875 -20.980469 L 34.921875 -79.613281 L 51.160156 -79.613281 C 69.265625 -79.613281 81.480469 -67.972656 81.480469 -50.296875 C 81.480469 -32.621094 69.265625 -20.980469 51.449219 -20.980469 Z M 34.921875 -20.980469 "/></g></g></g><g fill="#004aad" fill-opacity="1"><g transform="translate(564.283084, 347.813352)"><g/></g></g><g fill="#004aad" fill-opacity="1"><g transform="translate(598.05423, 347.813352)"><g><path d="M 33.769531 0 L 56.332031 0 L 79.183594 -65.097656 L 102.03125 0 L 124.449219 0 L 156.929688 -100.59375 L 132.785156 -100.59375 L 123.15625 -69.984375 L 112.378906 -36.5 L 100.738281 -69.984375 L 89.960938 -100.59375 L 68.261719 -100.59375 L 57.484375 -69.984375 L 45.988281 -36.933594 L 35.351562 -69.984375 L 25.722656 -100.59375 L 1.4375 -100.59375 Z M 33.769531 0 "/></g></g></g><g fill="#004aad" fill-opacity="1"><g transform="translate(756.419392, 347.813352)"><g><path d="M 12.070312 0 L 79.757812 0 L 79.757812 -19.402344 L 34.777344 -19.402344 L 34.777344 -41.386719 L 74.296875 -41.386719 L 74.296875 -60.5 L 34.777344 -60.5 L 34.777344 -81.339844 L 78.175781 -81.339844 L 78.175781 -100.59375 L 12.070312 -100.59375 Z M 12.070312 0 "/></g></g></g><g fill="#004aad" fill-opacity="1"><g transform="translate(843.505813, 347.813352)"><g/></g></g><g fill="#004aad" fill-opacity="1"><g transform="translate(877.27696, 347.813352)"><g><path d="M 36.214844 0 L 59.0625 0 L 59.0625 -79.183594 L 90.96875 -79.183594 L 90.96875 -100.59375 L 4.3125 -100.59375 L 4.3125 -79.183594 L 36.214844 -79.183594 Z M 36.214844 0 "/></g></g></g><g fill="#004aad" fill-opacity="1"><g transform="translate(972.554696, 347.813352)"><g><path d="M 12.070312 0 L 34.921875 0 L 34.921875 -31.328125 L 50.011719 -31.328125 L 67.972656 0 L 94.414062 0 L 73.578125 -34.921875 C 85.648438 -40.238281 92.691406 -51.160156 92.691406 -65.960938 C 92.691406 -87.375 78.03125 -100.59375 55.039062 -100.59375 L 12.070312 -100.59375 Z M 34.632812 -50.585938 L 34.632812 -81.050781 L 52.023438 -81.050781 C 63.230469 -81.050781 69.554688 -75.589844 69.554688 -65.816406 C 69.554688 -56.046875 63.230469 -50.585938 52.023438 -50.585938 Z M 34.632812 -50.585938 "/></g></g></g><g fill="#004aad" fill-opacity="1"><g transform="translate(1073.72449, 347.813352)"><g><path d="M 53.171875 2.011719 C 79.328125 2.011719 95.277344 -14.371094 95.277344 -41.386719 L 95.277344 -100.59375 L 72.429688 -100.59375 L 72.429688 -42.96875 C 72.429688 -27.59375 65.960938 -19.6875 53.171875 -19.6875 C 40.382812 -19.6875 33.914062 -27.59375 33.914062 -42.96875 L 33.914062 -100.59375 L 11.066406 -100.59375 L 11.066406 -41.386719 C 11.066406 -14.371094 27.015625 2.011719 53.171875 2.011719 Z M 53.171875 2.011719 "/></g></g></g><g fill="#004aad" fill-opacity="1"><g transform="translate(1180.067655, 347.813352)"><g><path d="M 47.136719 2.011719 C 70.992188 2.011719 85.648438 -9.339844 85.648438 -28.308594 C 85.648438 -44.261719 75.160156 -53.746094 50.152344 -59.636719 C 34.777344 -63.230469 29.460938 -67.113281 29.460938 -73.289062 C 29.460938 -79.902344 35.351562 -83.925781 44.980469 -83.925781 C 55.472656 -83.925781 61.792969 -78.464844 61.792969 -69.410156 L 83.78125 -69.410156 C 83.78125 -89.671875 68.546875 -102.605469 44.691406 -102.605469 C 21.554688 -102.605469 7.183594 -91.253906 7.183594 -72.859375 C 7.183594 -56.476562 18.25 -46.703125 41.820312 -41.675781 C 56.046875 -38.65625 62.511719 -34.488281 62.511719 -27.449219 C 62.511719 -20.695312 56.476562 -16.8125 46.992188 -16.8125 C 35.925781 -16.8125 28.742188 -22.417969 28.742188 -32.046875 L 6.324219 -32.046875 C 6.324219 -11.210938 21.84375 2.011719 47.136719 2.011719 Z M 47.136719 2.011719 "/></g></g></g><g fill="#004aad" fill-opacity="1"><g transform="translate(1272.183892, 347.813352)"><g><path d="M 36.214844 0 L 59.0625 0 L 59.0625 -79.183594 L 90.96875 -79.183594 L 90.96875 -100.59375 L 4.3125 -100.59375 L 4.3125 -79.183594 L 36.214844 -79.183594 Z M 36.214844 0 "/></g></g></g><g fill="#004aad" fill-opacity="1"><g transform="translate(1367.461627, 347.813352)"><g><path d="M 12.070312 11.785156 L 12.070312 22.707031 C 27.015625 21.699219 35.496094 7.902344 35.496094 -5.75 C 35.496094 -16.382812 29.746094 -24.863281 19.542969 -24.863281 C 11.351562 -24.863281 5.890625 -19.257812 5.890625 -11.785156 C 5.890625 -4.453125 11.351562 1.007812 19.113281 1.007812 C 19.832031 1.007812 20.695312 1.007812 21.554688 0.863281 C 21.125 6.753906 17.820312 10.347656 12.070312 11.785156 Z M 6.753906 -64.238281 C 6.753906 -56.765625 12.214844 -51.304688 20.117188 -51.304688 C 27.878906 -51.304688 33.484375 -56.765625 33.484375 -64.238281 C 33.484375 -71.710938 27.878906 -77.316406 20.117188 -77.316406 C 12.214844 -77.316406 6.753906 -71.710938 6.753906 -64.238281 Z M 6.753906 -64.238281 "/></g></g></g><g mask="url(#3f294eaa25)"><g transform="matrix(1, 0, 0, 1, 904, 477)"><g clip-path="url(#8aeff003c6)"><g fill="#004aad" fill-opacity="1"><g transform="translate(0.954062, 48.653731)"><g><path d="M 11.019531 0 L 14.691406 0 L 24.097656 -25.398438 L 29.296875 -11.421875 L 33.550781 0 L 37.222656 0 L 47.4375 -31.355469 L 43.316406 -31.355469 L 35.253906 -6.269531 L 25.980469 -31.355469 L 22.261719 -31.355469 L 12.992188 -6.316406 L 9.316406 -17.828125 L 4.972656 -31.355469 L 0.851562 -31.355469 Z M 11.019531 0 "/></g></g></g><g fill="#004aad" fill-opacity="1"><g transform="translate(49.226566, 48.653731)"><g><path d="M 5.734375 0.359375 C 7.570312 0.359375 8.78125 -0.894531 8.78125 -2.597656 C 8.78125 -4.300781 7.570312 -5.507812 5.734375 -5.507812 C 3.941406 -5.507812 2.734375 -4.300781 2.734375 -2.597656 C 2.734375 -0.894531 3.941406 0.359375 5.734375 0.359375 Z M 5.734375 0.359375 "/></g></g></g><g fill="#004aad" fill-opacity="1"><g transform="translate(60.734948, 48.653731)"><g/></g></g><g fill="#004aad" fill-opacity="1"><g transform="translate(71.840303, 48.653731)"><g><path d="M 4.570312 0 L 24.097656 0 L 24.097656 -3.671875 L 8.511719 -3.671875 L 8.511719 -14.15625 L 22.488281 -14.15625 L 22.488281 -17.785156 L 8.511719 -17.785156 L 8.511719 -27.683594 L 23.605469 -27.683594 L 23.605469 -31.355469 L 4.570312 -31.355469 Z M 4.570312 0 "/></g></g></g><g fill="#004aad" fill-opacity="1"><g transform="translate(98.842447, 48.653731)"><g><path d="M 4.570312 0 L 15.410156 0 C 25.039062 0 31.492188 -6.40625 31.492188 -15.679688 C 31.492188 -24.949219 25.039062 -31.355469 15.410156 -31.355469 L 4.570312 -31.355469 Z M 8.511719 -3.761719 L 8.511719 -27.59375 L 15.230469 -27.59375 C 22.53125 -27.59375 27.460938 -22.800781 27.460938 -15.679688 C 27.460938 -8.554688 22.578125 -3.761719 15.410156 -3.761719 Z M 8.511719 -3.761719 "/></g></g></g><g fill="#004aad" fill-opacity="1"><g transform="translate(132.919783, 48.653731)"><g><path d="M 11.019531 0 L 14.691406 0 L 24.097656 -25.398438 L 29.296875 -11.421875 L 33.550781 0 L 37.222656 0 L 47.4375 -31.355469 L 43.316406 -31.355469 L 35.253906 -6.269531 L 25.980469 -31.355469 L 22.261719 -31.355469 L 12.992188 -6.316406 L 9.316406 -17.828125 L 4.972656 -31.355469 L 0.851562 -31.355469 Z M 11.019531 0 "/></g></g></g><g fill="#004aad" fill-opacity="1"><g transform="translate(181.192287, 48.653731)"><g><path d="M 0.761719 0 L 4.972656 0 L 7.839844 -7.121094 L 23.113281 -7.121094 L 26.070312 0 L 30.238281 0 L 17.335938 -31.355469 L 13.664062 -31.355469 Z M 9.363281 -10.796875 L 15.5 -25.847656 L 21.636719 -10.796875 Z M 9.363281 -10.796875 "/></g></g></g><g fill="#004aad" fill-opacity="1"><g transform="translate(212.179827, 48.653731)"><g><path d="M 4.570312 0 L 8.511719 0 L 8.511719 -11.242188 L 15.410156 -11.242188 L 23.070312 0 L 27.816406 0 L 19.933594 -11.648438 C 24.503906 -12.765625 27.324219 -16.214844 27.324219 -21.277344 C 27.324219 -27.503906 23.023438 -31.355469 16.527344 -31.355469 L 4.570312 -31.355469 Z M 8.511719 -15.007812 L 8.511719 -27.59375 L 16.082031 -27.59375 C 20.652344 -27.59375 23.292969 -25.265625 23.292969 -21.277344 C 23.292969 -17.289062 20.652344 -15.007812 16.082031 -15.007812 Z M 8.511719 -15.007812 "/></g></g></g><g fill="#004aad" fill-opacity="1"><g transform="translate(242.674792, 48.653731)"><g><path d="M 4.570312 0 L 15.410156 0 C 25.039062 0 31.492188 -6.40625 31.492188 -15.679688 C 31.492188 -24.949219 25.039062 -31.355469 15.410156 -31.355469 L 4.570312 -31.355469 Z M 8.511719 -3.761719 L 8.511719 -27.59375 L 15.230469 -27.59375 C 22.53125 -27.59375 27.460938 -22.800781 27.460938 -15.679688 C 27.460938 -8.554688 22.578125 -3.761719 15.410156 -3.761719 Z M 8.511719 -3.761719 "/></g></g></g><g fill="#004aad" fill-opacity="1"><g transform="translate(276.752128, 48.653731)"><g><path d="M 15.007812 0.582031 C 21.859375 0.582031 26.292969 -2.777344 26.292969 -8.242188 C 26.292969 -12.855469 23.203125 -15.632812 15.183594 -17.605469 C 9.09375 -19.082031 7.078125 -20.695312 7.078125 -23.292969 C 7.078125 -26.292969 9.765625 -28.175781 14.246094 -28.175781 C 18.859375 -28.175781 21.726562 -25.847656 21.816406 -22.082031 L 25.710938 -22.082031 C 25.667969 -28.175781 21.277344 -31.9375 14.246094 -31.9375 C 7.390625 -31.9375 3.046875 -28.578125 3.046875 -23.292969 C 3.046875 -18.457031 6.496094 -15.769531 14.199219 -13.929688 C 19.84375 -12.585938 22.21875 -11.019531 22.21875 -8.109375 C 22.21875 -5.015625 19.441406 -3.179688 15.007812 -3.179688 C 10.125 -3.179688 6.71875 -5.597656 6.628906 -9.632812 L 2.6875 -9.632812 C 2.734375 -3.492188 7.527344 0.582031 15.007812 0.582031 Z M 15.007812 0.582031 "/></g></g></g><g fill="#004aad" fill-opacity="1"><g transform="translate(305.724588, 48.653731)"><g/></g></g><g fill="#004aad" fill-opacity="1"><g transform="translate(316.829926, 48.653731)"><g><path d="M 4.570312 0 L 15.410156 0 C 25.039062 0 31.492188 -6.40625 31.492188 -15.679688 C 31.492188 -24.949219 25.039062 -31.355469 15.410156 -31.355469 L 4.570312 -31.355469 Z M 8.511719 -3.761719 L 8.511719 -27.59375 L 15.230469 -27.59375 C 22.53125 -27.59375 27.460938 -22.800781 27.460938 -15.679688 C 27.460938 -8.554688 22.578125 -3.761719 15.410156 -3.761719 Z M 8.511719 -3.761719 "/></g></g></g><g fill="#004aad" fill-opacity="1"><g transform="translate(350.907262, 48.653731)"><g><path d="M 4.570312 0 L 24.097656 0 L 24.097656 -3.671875 L 8.511719 -3.671875 L 8.511719 -14.15625 L 22.488281 -14.15625 L 22.488281 -17.785156 L 8.511719 -17.785156 L 8.511719 -27.683594 L 23.605469 -27.683594 L 23.605469 -31.355469 L 4.570312 -31.355469 Z M 4.570312 0 "/></g></g></g><g fill="#004aad" fill-opacity="1"><g transform="translate(377.909388, 48.653731)"><g><path d="M 4.570312 0 L 8.511719 0 L 8.511719 -24.011719 L 18.902344 -8.332031 L 22.128906 -8.332031 L 32.519531 -23.964844 L 32.519531 0 L 36.464844 0 L 36.464844 -31.355469 L 32.789062 -31.355469 L 20.5625 -12.765625 L 8.242188 -31.355469 L 4.570312 -31.355469 Z M 4.570312 0 "/></g></g></g><g fill="#004aad" fill-opacity="1"><g transform="translate(418.927603, 48.653731)"><g><path d="M 4.570312 0 L 8.511719 0 L 8.511719 -31.355469 L 4.570312 -31.355469 Z M 4.570312 0 "/></g></g></g><g fill="#004aad" fill-opacity="1"><g transform="translate(432.003274, 48.653731)"><g><path d="M 4.570312 0 L 8.464844 0 L 8.464844 -24.546875 L 25.800781 0 L 29.476562 0 L 29.476562 -31.355469 L 25.621094 -31.355469 L 25.621094 -6.808594 L 8.285156 -31.355469 L 4.570312 -31.355469 Z M 4.570312 0 "/></g></g></g><g fill="#004aad" fill-opacity="1"><g transform="translate(466.035845, 48.653731)"><g><path d="M 18.546875 0.582031 C 28.175781 0.582031 34.671875 -6.71875 34.492188 -17.023438 L 17.46875 -17.023438 L 17.46875 -13.257812 L 30.238281 -13.257812 C 29.429688 -7.347656 24.949219 -3.359375 18.632812 -3.359375 C 11.601562 -3.359375 6.628906 -8.421875 6.628906 -15.679688 C 6.628906 -22.933594 11.558594 -27.996094 18.589844 -27.996094 C 23.425781 -27.996094 27.28125 -25.621094 29.25 -21.589844 L 33.550781 -21.589844 C 31.535156 -27.773438 25.621094 -31.9375 18.457031 -31.9375 C 9.273438 -31.9375 2.597656 -25.085938 2.597656 -15.679688 C 2.597656 -6.226562 9.316406 0.582031 18.546875 0.582031 Z M 18.546875 0.582031 "/></g></g></g></g></g></g><g mask="url(#e8bcf38581)"><g transform="matrix(1, 0, 0, 1, 36, 366)"><g clip-path="url(#808ddacffd)"><g fill="#004aad" fill-opacity="1"><g transform="translate(1.082806, 92.804011)"><g><path d="M 1.476562 0 L 9.632812 0 L 15.1875 -13.800781 L 44.78125 -13.800781 L 50.511719 0 L 58.582031 0 L 33.585938 -60.75 L 26.46875 -60.75 Z M 18.136719 -20.914062 L 30.027344 -50.078125 L 41.917969 -20.914062 Z M 18.136719 -20.914062 "/></g></g></g><g fill="#004aad" fill-opacity="1"><g transform="translate(61.128628, 92.804011)"><g><path d="M 8.851562 0 L 45.996094 0 L 45.996094 -7.289062 L 16.488281 -7.289062 L 16.488281 -60.75 L 8.851562 -60.75 Z M 8.851562 0 "/></g></g></g><g fill="#004aad" fill-opacity="1"><g transform="translate(109.807398, 92.804011)"><g><path d="M 8.851562 0 L 45.996094 0 L 45.996094 -7.289062 L 16.488281 -7.289062 L 16.488281 -60.75 L 8.851562 -60.75 Z M 8.851562 0 "/></g></g></g><g fill="#004aad" fill-opacity="1"><g transform="translate(158.486169, 92.804011)"><g/></g></g><g fill="#004aad" fill-opacity="1"><g transform="translate(180.00548, 92.804011)"><g><path d="M 36.449219 1.128906 C 54.9375 1.128906 67.953125 -11.890625 67.953125 -30.375 C 67.953125 -48.859375 54.9375 -61.878906 36.449219 -61.878906 C 17.964844 -61.878906 5.035156 -48.859375 5.035156 -30.375 C 5.035156 -11.890625 17.964844 1.128906 36.449219 1.128906 Z M 12.84375 -30.375 C 12.84375 -44.523438 22.476562 -54.242188 36.449219 -54.242188 C 50.421875 -54.242188 60.058594 -44.523438 60.058594 -30.375 C 60.058594 -16.230469 50.421875 -6.507812 36.449219 -6.507812 C 22.476562 -6.507812 12.84375 -16.230469 12.84375 -30.375 Z M 12.84375 -30.375 "/></g></g></g><g fill="#004aad" fill-opacity="1"><g transform="translate(252.893473, 92.804011)"><g><path d="M 23.519531 0 L 31.15625 0 L 31.15625 -53.460938 L 51.636719 -53.460938 L 51.636719 -60.75 L 2.949219 -60.75 L 2.949219 -53.460938 L 23.519531 -53.460938 Z M 23.519531 0 "/></g></g></g><g fill="#004aad" fill-opacity="1"><g transform="translate(307.559475, 92.804011)"><g><path d="M 48.6875 0 L 56.324219 0 L 56.324219 -60.75 L 48.6875 -60.75 L 48.6875 -34.628906 L 16.488281 -34.628906 L 16.488281 -60.75 L 8.851562 -60.75 L 8.851562 0 L 16.488281 0 L 16.488281 -27.339844 L 48.6875 -27.339844 Z M 48.6875 0 "/></g></g></g><g fill="#004aad" fill-opacity="1"><g transform="translate(372.724824, 92.804011)"><g><path d="M 8.851562 0 L 46.691406 0 L 46.691406 -7.117188 L 16.488281 -7.117188 L 16.488281 -27.425781 L 43.566406 -27.425781 L 43.566406 -34.453125 L 16.488281 -34.453125 L 16.488281 -53.632812 L 45.738281 -53.632812 L 45.738281 -60.75 L 8.851562 -60.75 Z M 8.851562 0 "/></g></g></g><g fill="#004aad" fill-opacity="1"><g transform="translate(425.047987, 92.804011)"><g><path d="M 8.851562 0 L 16.488281 0 L 16.488281 -21.785156 L 29.855469 -21.785156 L 44.695312 0 L 53.894531 0 L 38.621094 -22.566406 C 47.472656 -24.734375 52.941406 -31.417969 52.941406 -41.222656 C 52.941406 -53.289062 44.609375 -60.75 32.023438 -60.75 L 8.851562 -60.75 Z M 16.488281 -29.074219 L 16.488281 -53.460938 L 31.15625 -53.460938 C 40.007812 -53.460938 45.128906 -48.949219 45.128906 -41.222656 C 45.128906 -33.5 40.007812 -29.074219 31.15625 -29.074219 Z M 16.488281 -29.074219 "/></g></g></g><g fill="#004aad" fill-opacity="1"><g transform="translate(484.139344, 92.804011)"><g><path d="M 29.074219 1.128906 C 42.351562 1.128906 50.945312 -5.378906 50.945312 -15.96875 C 50.945312 -24.90625 44.957031 -30.289062 29.421875 -34.105469 C 17.617188 -36.972656 13.710938 -40.09375 13.710938 -45.128906 C 13.710938 -50.945312 18.917969 -54.589844 27.597656 -54.589844 C 36.539062 -54.589844 42.089844 -50.078125 42.265625 -42.785156 L 49.816406 -42.785156 C 49.730469 -54.589844 41.222656 -61.878906 27.597656 -61.878906 C 14.320312 -61.878906 5.902344 -55.371094 5.902344 -45.128906 C 5.902344 -35.757812 12.585938 -30.550781 27.511719 -26.992188 C 38.445312 -24.386719 43.046875 -21.351562 43.046875 -15.707031 C 43.046875 -9.71875 37.664062 -6.160156 29.074219 -6.160156 C 19.613281 -6.160156 13.019531 -10.847656 12.84375 -18.660156 L 5.207031 -18.660156 C 5.292969 -6.769531 14.582031 1.128906 29.074219 1.128906 Z M 29.074219 1.128906 "/></g></g></g><g fill="#004aad" fill-opacity="1"><g transform="translate(540.280466, 92.804011)"><g/></g></g><g fill="#004aad" fill-opacity="1"><g transform="translate(561.799811, 92.804011)"><g><path d="M 8.851562 0 L 16.488281 0 L 16.488281 -46.519531 L 36.625 -16.140625 L 42.871094 -16.140625 L 63.007812 -46.429688 L 63.007812 0 L 70.644531 0 L 70.644531 -60.75 L 63.527344 -60.75 L 39.835938 -24.734375 L 15.96875 -60.75 L 8.851562 -60.75 Z M 8.851562 0 "/></g></g></g><g fill="#004aad" fill-opacity="1"><g transform="translate(641.282449, 92.804011)"><g><path d="M 31.589844 1.042969 C 46.257812 1.042969 55.109375 -8.59375 55.109375 -24.734375 L 55.109375 -60.75 L 47.472656 -60.75 L 47.472656 -25.253906 C 47.472656 -12.84375 42.003906 -6.421875 31.589844 -6.421875 C 21.261719 -6.421875 15.707031 -12.84375 15.707031 -25.253906 L 15.707031 -60.75 L 8.15625 -60.75 L 8.15625 -24.734375 C 8.15625 -8.59375 16.921875 1.042969 31.589844 1.042969 Z M 31.589844 1.042969 "/></g></g></g><g fill="#004aad" fill-opacity="1"><g transform="translate(704.538801, 92.804011)"><g><path d="M 29.074219 1.128906 C 42.351562 1.128906 50.945312 -5.378906 50.945312 -15.96875 C 50.945312 -24.90625 44.957031 -30.289062 29.421875 -34.105469 C 17.617188 -36.972656 13.710938 -40.09375 13.710938 -45.128906 C 13.710938 -50.945312 18.917969 -54.589844 27.597656 -54.589844 C 36.539062 -54.589844 42.089844 -50.078125 42.265625 -42.785156 L 49.816406 -42.785156 C 49.730469 -54.589844 41.222656 -61.878906 27.597656 -61.878906 C 14.320312 -61.878906 5.902344 -55.371094 5.902344 -45.128906 C 5.902344 -35.757812 12.585938 -30.550781 27.511719 -26.992188 C 38.445312 -24.386719 43.046875 -21.351562 43.046875 -15.707031 C 43.046875 -9.71875 37.664062 -6.160156 29.074219 -6.160156 C 19.613281 -6.160156 13.019531 -10.847656 12.84375 -18.660156 L 5.207031 -18.660156 C 5.292969 -6.769531 14.582031 1.128906 29.074219 1.128906 Z M 29.074219 1.128906 "/></g></g></g><g fill="#004aad" fill-opacity="1"><g transform="translate(760.679922, 92.804011)"><g><path d="M 23.519531 0 L 31.15625 0 L 31.15625 -53.460938 L 51.636719 -53.460938 L 51.636719 -60.75 L 2.949219 -60.75 L 2.949219 -53.460938 L 23.519531 -53.460938 Z M 23.519531 0 "/></g></g></g><g fill="#004aad" fill-opacity="1"><g transform="translate(815.345909, 92.804011)"><g/></g></g><g fill="#004aad" fill-opacity="1"><g transform="translate(836.865254, 92.804011)"><g><path d="M 8.851562 0 L 33.5 0 C 45.738281 0 53.375 -6.507812 53.375 -17.011719 C 53.375 -23.867188 49.988281 -28.988281 43.742188 -31.503906 C 48.6875 -34.019531 51.636719 -38.707031 51.636719 -44.609375 C 51.636719 -54.414062 44 -60.75 32.371094 -60.75 L 8.851562 -60.75 Z M 16.488281 -7.117188 L 16.488281 -27.511719 L 33.238281 -27.511719 C 41.136719 -27.511719 45.5625 -23.78125 45.5625 -17.359375 C 45.5625 -10.847656 41.136719 -7.117188 33.328125 -7.117188 Z M 16.488281 -34.453125 L 16.488281 -53.632812 L 32.199219 -53.632812 C 39.574219 -53.632812 43.828125 -50.164062 43.828125 -44 C 43.828125 -37.925781 39.660156 -34.453125 32.199219 -34.453125 Z M 16.488281 -34.453125 "/></g></g></g><g fill="#004aad" fill-opacity="1"><g transform="translate(895.088856, 92.804011)"><g><path d="M 8.851562 0 L 16.488281 0 L 16.488281 -21.785156 L 29.855469 -21.785156 L 44.695312 0 L 53.894531 0 L 38.621094 -22.566406 C 47.472656 -24.734375 52.941406 -31.417969 52.941406 -41.222656 C 52.941406 -53.289062 44.609375 -60.75 32.023438 -60.75 L 8.851562 -60.75 Z M 16.488281 -29.074219 L 16.488281 -53.460938 L 31.15625 -53.460938 C 40.007812 -53.460938 45.128906 -48.949219 45.128906 -41.222656 C 45.128906 -33.5 40.007812 -29.074219 31.15625 -29.074219 Z M 16.488281 -29.074219 "/></g></g></g><g fill="#004aad" fill-opacity="1"><g transform="translate(954.18018, 92.804011)"><g><path d="M 8.851562 0 L 16.488281 0 L 16.488281 -60.75 L 8.851562 -60.75 Z M 8.851562 0 "/></g></g></g><g fill="#004aad" fill-opacity="1"><g transform="translate(979.517452, 92.804011)"><g><path d="M 8.851562 0 L 16.402344 0 L 16.402344 -47.558594 L 49.988281 0 L 57.105469 0 L 57.105469 -60.75 L 49.640625 -60.75 L 49.640625 -13.191406 L 16.054688 -60.75 L 8.851562 -60.75 Z M 8.851562 0 "/></g></g></g><g fill="#004aad" fill-opacity="1"><g transform="translate(1045.463697, 92.804011)"><g><path d="M 35.929688 1.128906 C 54.589844 1.128906 67.171875 -13.019531 66.824219 -32.980469 L 33.847656 -32.980469 L 33.847656 -25.6875 L 58.582031 -25.6875 C 57.019531 -14.234375 48.339844 -6.507812 36.101562 -6.507812 C 22.476562 -6.507812 12.84375 -16.316406 12.84375 -30.375 C 12.84375 -44.433594 22.390625 -54.242188 36.015625 -54.242188 C 45.390625 -54.242188 52.851562 -49.640625 56.671875 -41.832031 L 65.003906 -41.832031 C 61.097656 -53.808594 49.640625 -61.878906 35.757812 -61.878906 C 17.964844 -61.878906 5.035156 -48.601562 5.035156 -30.375 C 5.035156 -12.0625 18.050781 1.128906 35.929688 1.128906 Z M 35.929688 1.128906 "/></g></g></g><g fill="#004aad" fill-opacity="1"><g transform="translate(1117.050106, 92.804011)"><g/></g></g><g fill="#004aad" fill-opacity="1"><g transform="translate(1138.569451, 92.804011)"><g><path d="M 8.851562 0 L 29.855469 0 C 48.515625 0 61.011719 -12.410156 61.011719 -30.375 C 61.011719 -48.339844 48.515625 -60.75 29.855469 -60.75 L 8.851562 -60.75 Z M 16.488281 -7.289062 L 16.488281 -53.460938 L 29.507812 -53.460938 C 43.652344 -53.460938 53.199219 -44.175781 53.199219 -30.375 C 53.199219 -16.578125 43.742188 -7.289062 29.855469 -7.289062 Z M 16.488281 -7.289062 "/></g></g></g><g fill="#004aad" fill-opacity="1"><g transform="translate(1204.602556, 92.804011)"><g><path d="M 1.476562 0 L 9.632812 0 L 15.1875 -13.800781 L 44.78125 -13.800781 L 50.511719 0 L 58.582031 0 L 33.585938 -60.75 L 26.46875 -60.75 Z M 18.136719 -20.914062 L 30.027344 -50.078125 L 41.917969 -20.914062 Z M 18.136719 -20.914062 "/></g></g></g><g fill="#004aad" fill-opacity="1"><g transform="translate(1264.648396, 92.804011)"><g><path d="M 23.519531 0 L 31.15625 0 L 31.15625 -53.460938 L 51.636719 -53.460938 L 51.636719 -60.75 L 2.949219 -60.75 L 2.949219 -53.460938 L 23.519531 -53.460938 Z M 23.519531 0 "/></g></g></g><g fill="#004aad" fill-opacity="1"><g transform="translate(1319.314449, 92.804011)"><g><path d="M 1.476562 0 L 9.632812 0 L 15.1875 -13.800781 L 44.78125 -13.800781 L 50.511719 0 L 58.582031 0 L 33.585938 -60.75 L 26.46875 -60.75 Z M 18.136719 -20.914062 L 30.027344 -50.078125 L 41.917969 -20.914062 Z M 18.136719 -20.914062 "/></g></g></g></g></g></g><g mask="url(#1365d6b184)"><g transform="matrix(1, 0, 0, 1, 29, 195)"><g clip-path="url(#ca56125328)"><g fill="#004aad" fill-opacity="1"><g transform="translate(0.141714, 154.317952)"><g><path d="M 12.070312 0 L 34.921875 0 L 34.921875 -100.59375 L 12.070312 -100.59375 Z M 12.070312 0 "/></g></g></g><g fill="#004aad" fill-opacity="1"><g transform="translate(47.133911, 154.317952)"><g><path d="M 12.070312 0 L 34.777344 0 L 34.777344 -61.652344 L 79.183594 0 L 98.582031 0 L 98.582031 -100.59375 L 75.878906 -100.59375 L 75.878906 -39.375 L 31.472656 -100.59375 L 12.070312 -100.59375 Z M 12.070312 0 "/></g></g></g><g fill="#004aad" fill-opacity="1"><g transform="translate(157.788328, 154.317952)"><g/></g></g><g fill="#004aad" fill-opacity="1"><g transform="translate(191.559474, 154.317952)"><g><path d="M 58.921875 2.011719 C 92.117188 2.011719 113.527344 -22.5625 111.230469 -57.050781 L 54.464844 -57.050781 L 54.464844 -39.375 L 87.085938 -39.375 C 84.210938 -27.160156 73.867188 -18.96875 59.207031 -18.96875 C 40.8125 -18.96875 29.027344 -32.191406 29.027344 -50.296875 C 29.027344 -68.691406 41.242188 -81.625 58.921875 -81.625 C 70.128906 -81.625 79.46875 -76.453125 84.355469 -67.6875 L 108.929688 -67.6875 C 102.894531 -88.8125 82.917969 -102.605469 58.488281 -102.605469 C 27.878906 -102.605469 6.179688 -80.90625 6.179688 -50.296875 C 6.179688 -19.542969 28.023438 2.011719 58.921875 2.011719 Z M 58.921875 2.011719 "/></g></g></g><g fill="#004aad" fill-opacity="1"><g transform="translate(308.824422, 154.317952)"><g><path d="M 59.78125 2.011719 C 91.253906 2.011719 113.527344 -19.542969 113.527344 -50.296875 C 113.527344 -81.050781 91.253906 -102.605469 59.78125 -102.605469 C 28.308594 -102.605469 6.179688 -81.050781 6.179688 -50.296875 C 6.179688 -19.542969 28.308594 2.011719 59.78125 2.011719 Z M 29.460938 -50.296875 C 29.460938 -68.40625 41.960938 -80.90625 59.78125 -80.90625 C 77.746094 -80.90625 90.105469 -68.40625 90.105469 -50.296875 C 90.105469 -32.191406 77.746094 -19.6875 59.78125 -19.6875 C 41.960938 -19.6875 29.460938 -32.191406 29.460938 -50.296875 Z M 29.460938 -50.296875 "/></g></g></g><g fill="#004aad" fill-opacity="1"><g transform="translate(428.532363, 154.317952)"><g><path d="M 12.070312 0 L 51.878906 0 C 83.636719 0 104.90625 -20.261719 104.90625 -50.296875 C 104.90625 -80.1875 83.636719 -100.59375 51.878906 -100.59375 L 12.070312 -100.59375 Z M 34.921875 -20.980469 L 34.921875 -79.613281 L 51.160156 -79.613281 C 69.265625 -79.613281 81.480469 -67.972656 81.480469 -50.296875 C 81.480469 -32.621094 69.265625 -20.980469 51.449219 -20.980469 Z M 34.921875 -20.980469 "/></g></g></g><g fill="#004aad" fill-opacity="1"><g transform="translate(539.474175, 154.317952)"><g/></g></g><g fill="#004aad" fill-opacity="1"><g transform="translate(573.245322, 154.317952)"><g><path d="M 33.769531 0 L 56.332031 0 L 79.183594 -65.097656 L 102.03125 0 L 124.449219 0 L 156.929688 -100.59375 L 132.785156 -100.59375 L 123.15625 -69.984375 L 112.378906 -36.5 L 100.738281 -69.984375 L 89.960938 -100.59375 L 68.261719 -100.59375 L 57.484375 -69.984375 L 45.988281 -36.933594 L 35.351562 -69.984375 L 25.722656 -100.59375 L 1.4375 -100.59375 Z M 33.769531 0 "/></g></g></g><g fill="#004aad" fill-opacity="1"><g transform="translate(731.610484, 154.317952)"><g><path d="M 12.070312 0 L 79.757812 0 L 79.757812 -19.402344 L 34.777344 -19.402344 L 34.777344 -41.386719 L 74.296875 -41.386719 L 74.296875 -60.5 L 34.777344 -60.5 L 34.777344 -81.339844 L 78.175781 -81.339844 L 78.175781 -100.59375 L 12.070312 -100.59375 Z M 12.070312 0 "/></g></g></g><g fill="#004aad" fill-opacity="1"><g transform="translate(818.696905, 154.317952)"><g/></g></g><g fill="#004aad" fill-opacity="1"><g transform="translate(852.468052, 154.317952)"><g><path d="M 36.214844 0 L 59.0625 0 L 59.0625 -79.183594 L 90.96875 -79.183594 L 90.96875 -100.59375 L 4.3125 -100.59375 L 4.3125 -79.183594 L 36.214844 -79.183594 Z M 36.214844 0 "/></g></g></g><g fill="#004aad" fill-opacity="1"><g transform="translate(947.745787, 154.317952)"><g><path d="M 12.070312 0 L 34.921875 0 L 34.921875 -31.328125 L 50.011719 -31.328125 L 67.972656 0 L 94.414062 0 L 73.578125 -34.921875 C 85.648438 -40.238281 92.691406 -51.160156 92.691406 -65.960938 C 92.691406 -87.375 78.03125 -100.59375 55.039062 -100.59375 L 12.070312 -100.59375 Z M 34.632812 -50.585938 L 34.632812 -81.050781 L 52.023438 -81.050781 C 63.230469 -81.050781 69.554688 -75.589844 69.554688 -65.816406 C 69.554688 -56.046875 63.230469 -50.585938 52.023438 -50.585938 Z M 34.632812 -50.585938 "/></g></g></g><g fill="#004aad" fill-opacity="1"><g transform="translate(1048.915582, 154.317952)"><g><path d="M 53.171875 2.011719 C 79.328125 2.011719 95.277344 -14.371094 95.277344 -41.386719 L 95.277344 -100.59375 L 72.429688 -100.59375 L 72.429688 -42.96875 C 72.429688 -27.59375 65.960938 -19.6875 53.171875 -19.6875 C 40.382812 -19.6875 33.914062 -27.59375 33.914062 -42.96875 L 33.914062 -100.59375 L 11.066406 -100.59375 L 11.066406 -41.386719 C 11.066406 -14.371094 27.015625 2.011719 53.171875 2.011719 Z M 53.171875 2.011719 "/></g></g></g><g fill="#004aad" fill-opacity="1"><g transform="translate(1155.258747, 154.317952)"><g><path d="M 47.136719 2.011719 C 70.992188 2.011719 85.648438 -9.339844 85.648438 -28.308594 C 85.648438 -44.261719 75.160156 -53.746094 50.152344 -59.636719 C 34.777344 -63.230469 29.460938 -67.113281 29.460938 -73.289062 C 29.460938 -79.902344 35.351562 -83.925781 44.980469 -83.925781 C 55.472656 -83.925781 61.792969 -78.464844 61.792969 -69.410156 L 83.78125 -69.410156 C 83.78125 -89.671875 68.546875 -102.605469 44.691406 -102.605469 C 21.554688 -102.605469 7.183594 -91.253906 7.183594 -72.859375 C 7.183594 -56.476562 18.25 -46.703125 41.820312 -41.675781 C 56.046875 -38.65625 62.511719 -34.488281 62.511719 -27.449219 C 62.511719 -20.695312 56.476562 -16.8125 46.992188 -16.8125 C 35.925781 -16.8125 28.742188 -22.417969 28.742188 -32.046875 L 6.324219 -32.046875 C 6.324219 -11.210938 21.84375 2.011719 47.136719 2.011719 Z M 47.136719 2.011719 "/></g></g></g><g fill="#004aad" fill-opacity="1"><g transform="translate(1247.374984, 154.317952)"><g><path d="M 36.214844 0 L 59.0625 0 L 59.0625 -79.183594 L 90.96875 -79.183594 L 90.96875 -100.59375 L 4.3125 -100.59375 L 4.3125 -79.183594 L 36.214844 -79.183594 Z M 36.214844 0 "/></g></g></g><g fill="#004aad" fill-opacity="1"><g transform="translate(1342.652719, 154.317952)"><g><path d="M 12.070312 11.785156 L 12.070312 22.707031 C 27.015625 21.699219 35.496094 7.902344 35.496094 -5.75 C 35.496094 -16.382812 29.746094 -24.863281 19.542969 -24.863281 C 11.351562 -24.863281 5.890625 -19.257812 5.890625 -11.785156 C 5.890625 -4.453125 11.351562 1.007812 19.113281 1.007812 C 19.832031 1.007812 20.695312 1.007812 21.554688 0.863281 C 21.125 6.753906 17.820312 10.347656 12.070312 11.785156 Z M 6.753906 -64.238281 C 6.753906 -56.765625 12.214844 -51.304688 20.117188 -51.304688 C 27.878906 -51.304688 33.484375 -56.765625 33.484375 -64.238281 C 33.484375 -71.710938 27.878906 -77.316406 20.117188 -77.316406 C 12.214844 -77.316406 6.753906 -71.710938 6.753906 -64.238281 Z M 6.753906 -64.238281 "/></g></g></g></g></g></g><g mask="url(#7424ab680d)"><g transform="matrix(1, 0, 0, 1, 909, 478)"><g clip-path="url(#ca0661df5e)"><g clip-path="url(#7449043c4f)"><g fill="#004aad" fill-opacity="1"><g transform="translate(0.145156, 49.158301)"><g><path d="M 11.019531 0 L 14.691406 0 L 24.097656 -25.398438 L 29.296875 -11.421875 L 33.550781 0 L 37.222656 0 L 47.4375 -31.355469 L 43.316406 -31.355469 L 35.253906 -6.269531 L 25.980469 -31.355469 L 22.261719 -31.355469 L 12.992188 -6.316406 L 9.316406 -17.828125 L 4.972656 -31.355469 L 0.851562 -31.355469 Z M 11.019531 0 "/></g></g></g></g><g fill="#004aad" fill-opacity="1"><g transform="translate(48.41766, 49.158301)"><g><path d="M 5.734375 0.359375 C 7.570312 0.359375 8.78125 -0.894531 8.78125 -2.597656 C 8.78125 -4.300781 7.570312 -5.507812 5.734375 -5.507812 C 3.941406 -5.507812 2.734375 -4.300781 2.734375 -2.597656 C 2.734375 -0.894531 3.941406 0.359375 5.734375 0.359375 Z M 5.734375 0.359375 "/></g></g></g><g fill="#004aad" fill-opacity="1"><g transform="translate(59.926041, 49.158301)"><g/></g></g><g fill="#004aad" fill-opacity="1"><g transform="translate(71.031397, 49.158301)"><g><path d="M 4.570312 0 L 24.097656 0 L 24.097656 -3.671875 L 8.511719 -3.671875 L 8.511719 -14.15625 L 22.488281 -14.15625 L 22.488281 -17.785156 L 8.511719 -17.785156 L 8.511719 -27.683594 L 23.605469 -27.683594 L 23.605469 -31.355469 L 4.570312 -31.355469 Z M 4.570312 0 "/></g></g></g><g fill="#004aad" fill-opacity="1"><g transform="translate(98.03354, 49.158301)"><g><path d="M 4.570312 0 L 15.410156 0 C 25.039062 0 31.492188 -6.40625 31.492188 -15.679688 C 31.492188 -24.949219 25.039062 -31.355469 15.410156 -31.355469 L 4.570312 -31.355469 Z M 8.511719 -3.761719 L 8.511719 -27.59375 L 15.230469 -27.59375 C 22.53125 -27.59375 27.460938 -22.800781 27.460938 -15.679688 C 27.460938 -8.554688 22.578125 -3.761719 15.410156 -3.761719 Z M 8.511719 -3.761719 "/></g></g></g><g fill="#004aad" fill-opacity="1"><g transform="translate(132.110876, 49.158301)"><g><path d="M 11.019531 0 L 14.691406 0 L 24.097656 -25.398438 L 29.296875 -11.421875 L 33.550781 0 L 37.222656 0 L 47.4375 -31.355469 L 43.316406 -31.355469 L 35.253906 -6.269531 L 25.980469 -31.355469 L 22.261719 -31.355469 L 12.992188 -6.316406 L 9.316406 -17.828125 L 4.972656 -31.355469 L 0.851562 -31.355469 Z M 11.019531 0 "/></g></g></g><g fill="#004aad" fill-opacity="1"><g transform="translate(180.38338, 49.158301)"><g><path d="M 0.761719 0 L 4.972656 0 L 7.839844 -7.121094 L 23.113281 -7.121094 L 26.070312 0 L 30.238281 0 L 17.335938 -31.355469 L 13.664062 -31.355469 Z M 9.363281 -10.796875 L 15.5 -25.847656 L 21.636719 -10.796875 Z M 9.363281 -10.796875 "/></g></g></g><g fill="#004aad" fill-opacity="1"><g transform="translate(211.37092, 49.158301)"><g><path d="M 4.570312 0 L 8.511719 0 L 8.511719 -11.242188 L 15.410156 -11.242188 L 23.070312 0 L 27.816406 0 L 19.933594 -11.648438 C 24.503906 -12.765625 27.324219 -16.214844 27.324219 -21.277344 C 27.324219 -27.503906 23.023438 -31.355469 16.527344 -31.355469 L 4.570312 -31.355469 Z M 8.511719 -15.007812 L 8.511719 -27.59375 L 16.082031 -27.59375 C 20.652344 -27.59375 23.292969 -25.265625 23.292969 -21.277344 C 23.292969 -17.289062 20.652344 -15.007812 16.082031 -15.007812 Z M 8.511719 -15.007812 "/></g></g></g><g fill="#004aad" fill-opacity="1"><g transform="translate(241.865886, 49.158301)"><g><path d="M 4.570312 0 L 15.410156 0 C 25.039062 0 31.492188 -6.40625 31.492188 -15.679688 C 31.492188 -24.949219 25.039062 -31.355469 15.410156 -31.355469 L 4.570312 -31.355469 Z M 8.511719 -3.761719 L 8.511719 -27.59375 L 15.230469 -27.59375 C 22.53125 -27.59375 27.460938 -22.800781 27.460938 -15.679688 C 27.460938 -8.554688 22.578125 -3.761719 15.410156 -3.761719 Z M 8.511719 -3.761719 "/></g></g></g><g fill="#004aad" fill-opacity="1"><g transform="translate(275.943222, 49.158301)"><g><path d="M 15.007812 0.582031 C 21.859375 0.582031 26.292969 -2.777344 26.292969 -8.242188 C 26.292969 -12.855469 23.203125 -15.632812 15.183594 -17.605469 C 9.09375 -19.082031 7.078125 -20.695312 7.078125 -23.292969 C 7.078125 -26.292969 9.765625 -28.175781 14.246094 -28.175781 C 18.859375 -28.175781 21.726562 -25.847656 21.816406 -22.082031 L 25.710938 -22.082031 C 25.667969 -28.175781 21.277344 -31.9375 14.246094 -31.9375 C 7.390625 -31.9375 3.046875 -28.578125 3.046875 -23.292969 C 3.046875 -18.457031 6.496094 -15.769531 14.199219 -13.929688 C 19.84375 -12.585938 22.21875 -11.019531 22.21875 -8.109375 C 22.21875 -5.015625 19.441406 -3.179688 15.007812 -3.179688 C 10.125 -3.179688 6.71875 -5.597656 6.628906 -9.632812 L 2.6875 -9.632812 C 2.734375 -3.492188 7.527344 0.582031 15.007812 0.582031 Z M 15.007812 0.582031 "/></g></g></g><g fill="#004aad" fill-opacity="1"><g transform="translate(304.915681, 49.158301)"><g/></g></g><g fill="#004aad" fill-opacity="1"><g transform="translate(316.02102, 49.158301)"><g><path d="M 4.570312 0 L 15.410156 0 C 25.039062 0 31.492188 -6.40625 31.492188 -15.679688 C 31.492188 -24.949219 25.039062 -31.355469 15.410156 -31.355469 L 4.570312 -31.355469 Z M 8.511719 -3.761719 L 8.511719 -27.59375 L 15.230469 -27.59375 C 22.53125 -27.59375 27.460938 -22.800781 27.460938 -15.679688 C 27.460938 -8.554688 22.578125 -3.761719 15.410156 -3.761719 Z M 8.511719 -3.761719 "/></g></g></g><g fill="#004aad" fill-opacity="1"><g transform="translate(350.098356, 49.158301)"><g><path d="M 4.570312 0 L 24.097656 0 L 24.097656 -3.671875 L 8.511719 -3.671875 L 8.511719 -14.15625 L 22.488281 -14.15625 L 22.488281 -17.785156 L 8.511719 -17.785156 L 8.511719 -27.683594 L 23.605469 -27.683594 L 23.605469 -31.355469 L 4.570312 -31.355469 Z M 4.570312 0 "/></g></g></g><g fill="#004aad" fill-opacity="1"><g transform="translate(377.100482, 49.158301)"><g><path d="M 4.570312 0 L 8.511719 0 L 8.511719 -24.011719 L 18.902344 -8.332031 L 22.128906 -8.332031 L 32.519531 -23.964844 L 32.519531 0 L 36.464844 0 L 36.464844 -31.355469 L 32.789062 -31.355469 L 20.5625 -12.765625 L 8.242188 -31.355469 L 4.570312 -31.355469 Z M 4.570312 0 "/></g></g></g><g fill="#004aad" fill-opacity="1"><g transform="translate(418.118697, 49.158301)"><g><path d="M 4.570312 0 L 8.511719 0 L 8.511719 -31.355469 L 4.570312 -31.355469 Z M 4.570312 0 "/></g></g></g><g fill="#004aad" fill-opacity="1"><g transform="translate(431.194367, 49.158301)"><g><path d="M 4.570312 0 L 8.464844 0 L 8.464844 -24.546875 L 25.800781 0 L 29.476562 0 L 29.476562 -31.355469 L 25.621094 -31.355469 L 25.621094 -6.808594 L 8.285156 -31.355469 L 4.570312 -31.355469 Z M 4.570312 0 "/></g></g></g><g fill="#004aad" fill-opacity="1"><g transform="translate(465.226938, 49.158301)"><g><path d="M 18.546875 0.582031 C 28.175781 0.582031 34.671875 -6.71875 34.492188 -17.023438 L 17.46875 -17.023438 L 17.46875 -13.257812 L 30.238281 -13.257812 C 29.429688 -7.347656 24.949219 -3.359375 18.632812 -3.359375 C 11.601562 -3.359375 6.628906 -8.421875 6.628906 -15.679688 C 6.628906 -22.933594 11.558594 -27.996094 18.589844 -27.996094 C 23.425781 -27.996094 27.28125 -25.621094 29.25 -21.589844 L 33.550781 -21.589844 C 31.535156 -27.773438 25.621094 -31.9375 18.457031 -31.9375 C 9.273438 -31.9375 2.597656 -25.085938 2.597656 -15.679688 C 2.597656 -6.226562 9.316406 0.582031 18.546875 0.582031 Z M 18.546875 0.582031 "/></g></g></g></g></g></g></svg>